<svg xmlns="http://www.w3.org/2000/svg" version="1.0" width="281.000000" height="246.000000" preserveAspectRatio="xMidYMid meet"><rect id="backgroundrect" width="100%" height="100%" x="0" y="0" fill="none" stroke="none"/>
<metadata>
Created by potrace 1.13, written by Peter Selinger 2001-2015
</metadata>

<g class="currentLayer"><title>Layer 1</title><g transform="translate(0,246) scale(0.10000000149011612,-0.10000000149011612) " fill="#646464" stroke="none" id="svg_1" class="selected" fill-opacity="1">
<path d="M1340 2454 c-229 -41 -404 -171 -500 -369 -39 -81 -70 -201 -70 -273 l0 -40 -62 -4 c-159 -11 -287 -139 -313 -309 l-7 -46 -41 8 c-50 9 -133 -3 -177 -26 -90 -47 -158 -146 -167 -244 -10 -111 33 -189 129 -232 l53 -24 1074 -3 c1171 -3 1128 -5 1248 54 113 55 225 187 263 312 25 80 27 215 4 293 -44 149 -138 260 -280 330 -84 42 -91 44 -194 47 -76 3 -123 0 -160 -11 -37 -11 -52 -12 -55 -4 -25 90 -53 163 -81 214 -107 192 -320 321 -543 328 -53 2 -107 2 -121 -1z" id="svg_2" fill="#646464"/>
<path d="M536 388 c-64 -178 -119 -332 -122 -344 -4 -15 1 -23 19 -31 l24 -11 127 346 c69 191 126 350 126 355 0 4 -13 7 -28 7 -28 0 -30 -3 -146 -322z" id="svg_3" fill="#646464"/>
<path d="M932 683 c-5 -16 -56 -154 -112 -308 -56 -154 -108 -297 -116 -317 -13 -37 -12 -38 12 -44 14 -4 27 -4 31 -1 4 5 229 616 247 675 7 19 4 22 -22 22 -24 0 -32 -6 -40 -27z" id="svg_4" fill="#646464"/>
<path d="M1216 668 c-132 -349 -232 -644 -223 -650 37 -23 43 -11 167 329 67 186 125 344 127 351 4 8 -5 12 -25 12 -27 0 -32 -5 -46 -42z" id="svg_5" fill="#646464"/>
<path d="M1515 698 c-151 -403 -243 -673 -232 -680 36 -23 43 -11 165 325 66 182 123 340 127 350 6 14 2 17 -24 17 -18 0 -34 -6 -36 -12z" id="svg_6" fill="#646464"/>
<path d="M1806 702 c-3 -5 -59 -158 -126 -342 -123 -340 -126 -349 -80 -350 11 0 46 84 119 288 57 158 115 315 128 350 l23 62 -29 0 c-17 0 -32 -4 -35 -8z" id="svg_7" fill="#646464"/>
<path d="M1975 378 c-66 -182 -121 -336 -123 -343 -1 -6 8 -17 22 -23 23 -10 26 -9 41 31 8 23 66 183 129 355 l113 312 -31 0 -31 0 -120 -332z" id="svg_8" fill="#646464"/>
</g></g></svg>