<svg xmlns="http://www.w3.org/2000/svg" version="1.0" width="278.000000" height="271.000000" preserveAspectRatio="xMidYMid meet"><rect id="backgroundrect" width="100%" height="100%" x="0" y="0" fill="none" stroke="none"/>
<metadata>
Created by potrace 1.13, written by Peter Selinger 2001-2015
</metadata>

<g class="currentLayer"><title>Layer 1</title><g transform="translate(0,271) scale(0.10000000149011612,-0.10000000149011612) " fill="#646464" stroke="none" id="svg_1" class="" fill-opacity="1">
<path d="M1326 2688 c-13 -18 -16 -54 -16 -183 0 -171 8 -205 50 -205 34 0 40 33 40 209 0 141 -3 172 -16 185 -21 22 -40 20 -58 -6z" id="svg_2" fill="#646464"/>
<path d="M460 2371 c-5 -11 -10 -23 -10 -27 0 -4 57 -65 127 -136 131 -132 161 -150 183 -109 5 11 10 23 10 27 0 4 -57 65 -127 136 -131 132 -161 150 -183 109z" id="svg_3" fill="#646464"/>
<path d="M2123 2268 c-99 -98 -123 -127 -123 -150 0 -21 6 -29 26 -34 23 -6 40 7 155 122 71 71 129 136 129 144 0 22 -20 40 -44 40 -11 0 -69 -49 -143 -122z" id="svg_4" fill="#646464"/>
<path d="M1232 1986 c-103 -26 -202 -84 -283 -165 -129 -130 -182 -256 -183 -436 0 -97 4 -120 30 -195 17 -47 47 -111 68 -142 81 -123 226 -227 366 -263 49 -13 93 -16 180 -13 99 4 126 9 195 36 178 71 304 207 371 402 27 77 27 272 0 350 -66 196 -198 335 -384 407 -56 22 -87 27 -187 29 -77 2 -139 -1 -173 -10z" id="svg_5" fill="#646464"/>
<path d="M16 1414 c-20 -20 -20 -38 0 -58 13 -13 46 -16 200 -16 109 0 193 4 205 10 25 14 25 56 0 70 -12 6 -96 10 -205 10 -154 0 -187 -3 -200 -16z" id="svg_6" fill="#646464"/>
<path d="M2336 1414 c-9 -8 -16 -22 -16 -29 0 -7 7 -21 16 -29 13 -13 46 -16 200 -16 109 0 193 4 205 10 11 6 19 21 19 35 0 14 -8 29 -19 35 -12 6 -96 10 -205 10 -154 0 -187 -3 -200 -16z" id="svg_7" fill="#646464"/>
<path d="M603 568 c-98 -98 -123 -128 -123 -150 0 -17 7 -31 21 -38 19 -11 34 2 155 121 74 73 134 140 134 149 0 22 -20 40 -44 40 -11 0 -69 -49 -143 -122z" id="svg_8" fill="#646464"/>
<path d="M1980 670 c-15 -29 -7 -40 133 -178 110 -108 128 -122 145 -113 17 9 32 31 32 48 0 4 -57 64 -127 135 -131 132 -161 150 -183 108z" id="svg_9" fill="#646464"/>
<path d="M1320 384 c-13 -33 -13 -330 0 -353 14 -28 40 -34 61 -15 17 15 19 34 19 194 0 187 -3 200 -47 200 -16 0 -27 -8 -33 -26z" id="svg_10" fill="#646464"/>
</g></g></svg>