<svg xmlns="http://www.w3.org/2000/svg" version="1.0" width="356.000000" height="354.000000" preserveAspectRatio="xMidYMid meet"><rect id="backgroundrect" width="100%" height="100%" x="0" y="0" fill="none" stroke="none"/>
<metadata>
Created by potrace 1.13, written by Peter Selinger 2001-2015
</metadata>

<g class="currentLayer"><title>Layer 1</title><g transform="translate(0,354) scale(0.10000000149011612,-0.10000000149011612) " fill="#646464" stroke="none" id="svg_1" class="selected" fill-opacity="1">
<path d="M1500 3533 c-151 -14 -338 -56 -456 -103 -538 -214 -916 -671 -1020 -1235 -26 -136 -26 -431 -1 -560 63 -322 207 -607 423 -834 223 -235 519 -401 835 -470 285 -61 628 -40 852 54 l33 14 -12 73 c-7 40 -13 110 -14 155 l0 82 -52 -24 c-185 -84 -435 -115 -658 -80 -436 67 -793 323 -991 711 -95 188 -139 376 -139 598 0 218 37 388 121 565 72 151 150 262 264 376 206 207 463 335 754 376 118 17 372 6 476 -20 253 -63 467 -182 645 -361 186 -185 322 -438 362 -671 7 -39 16 -65 22 -63 10 3 71 -71 256 -304 l45 -57 7 55 c39 336 -77 748 -300 1059 -86 121 -242 277 -363 364 -112 80 -319 186 -444 226 -201 65 -448 93 -645 74z" id="svg_2" fill="#646464"/>
<path d="M1476 2940 c-491 -78 -857 -478 -883 -966 -3 -67 -1 -144 6 -195 24 -165 115 -381 203 -483 39 -45 83 -53 118 -21 32 29 25 72 -21 137 -304 434 -158 1037 312 1286 299 159 661 131 937 -73 l64 -46 -119 -87 c-382 -281 -481 -351 -508 -358 -82 -19 -147 -75 -171 -147 -45 -135 46 -275 186 -285 71 -5 120 10 167 51 36 32 72 96 73 130 0 16 419 599 439 612 11 6 75 -79 119 -155 47 -84 91 -226 102 -331 22 -217 -30 -415 -159 -604 -54 -80 -54 -113 1 -141 45 -23 77 -5 132 74 261 381 237 885 -60 1238 l-44 52 51 66 c27 36 47 66 44 66 -3 0 -32 -20 -66 -45 -34 -25 -65 -45 -69 -45 -4 0 -15 9 -25 20 -50 55 -235 164 -345 202 -135 47 -353 68 -484 48z" id="svg_3" fill="#646464"/>
<path d="M2867 1658 c-320 -440 -507 -826 -507 -1043 1 -266 174 -505 430 -591 76 -26 244 -26 320 0 256 86 429 325 430 591 0 178 -124 468 -346 808 -107 164 -232 337 -244 337 -5 0 -42 -46 -83 -102z" id="svg_4" fill="#646464"/>
</g></g></svg>