<svg xmlns="http://www.w3.org/2000/svg" version="1.0" width="215.000000" height="226.000000" preserveAspectRatio="xMidYMid meet"><rect id="backgroundrect" width="100%" height="100%" x="0" y="0" fill="none" stroke="none"/>
<metadata>
Created by potrace 1.13, written by Peter Selinger 2001-2015
</metadata>

<g class="currentLayer"><title>Layer 1</title><g transform="translate(0,226) scale(0.10000000149011612,-0.10000000149011612) " fill="#646464" stroke="none" id="svg_1" class="selected" fill-opacity="1">
<path d="M763 2245 c-160 -43 -255 -150 -283 -318 -7 -37 -9 -78 -6 -91 17 -67 86 -102 144 -72 40 21 48 37 57 111 11 87 38 130 102 161 68 34 138 30 207 -10 70 -41 100 -93 104 -180 3 -66 1 -75 -30 -126 -25 -42 -45 -61 -87 -82 l-53 -28 -420 0 c-454 0 -461 -1 -486 -55 -23 -51 -9 -101 38 -128 25 -15 74 -17 447 -17 464 0 491 3 592 63 69 42 126 106 165 187 29 61 31 73 31 175 0 102 -2 114 -31 175 -91 191 -294 288 -491 235z" id="svg_2" fill="#646464"/>
<path d="M1615 1856 c-168 -42 -278 -171 -292 -343 -4 -39 -1 -74 7 -93 16 -39 62 -64 105 -56 50 10 75 44 86 120 11 78 28 116 65 145 62 49 177 52 245 7 121 -80 142 -233 48 -339 -70 -81 -22 -77 -965 -77 -625 0 -840 -3 -859 -12 -29 -13 -55 -55 -55 -88 0 -33 26 -75 55 -88 19 -9 237 -12 870 -12 798 0 846 1 904 19 165 51 275 177 304 346 49 285 -233 542 -518 471z" id="svg_3" fill="#646464"/>
<path d="M48 833 c-65 -40 -61 -140 7 -171 19 -9 234 -12 857 -12 593 0 842 -3 869 -11 110 -33 180 -162 149 -274 -16 -56 -72 -122 -124 -146 -72 -33 -176 -19 -229 29 -31 28 -49 72 -57 140 -13 100 -69 142 -144 107 -45 -22 -60 -59 -53 -138 8 -101 41 -173 111 -243 84 -84 146 -108 281 -108 93 -1 105 1 172 33 173 81 278 275 245 453 -33 178 -168 315 -342 348 -33 6 -366 10 -884 10 -756 -1 -833 -2 -858 -17z" id="svg_4" fill="#646464"/>
</g></g></svg>